<?xml version="1.0" encoding="UTF-8"?>
<svg id="Layer_2" data-name="Layer 2" xmlns="http://www.w3.org/2000/svg" viewBox="0 0 125.36 126.69">
  <defs>
    <style>
      .cls-1 {
        fill: #3cafab;
      }

      .cls-2 {
        fill: #164360;
      }
    </style>
  </defs>
  <g id="Layer_1-2" data-name="Layer 1">
    <g>
      <path class="cls-1" d="M.49,55.84c-.82-3.79-.36-7.62-.38-11.44-.06-13.13-.04-26.26-.01-39.4C.1,3.53-.22,2,.71.12c24.49.9,44.67,11.15,61.61,29.16,5.02-5.48,10.41-10.23,16.34-14.34C91.43,6.1,105.65,1.42,121.05.05c2.78-.25,4.33.26,4.31,3.6-.12,22.56-.1,45.12-.13,67.69-.51.12-1.2.06-1.49.37-5.27,5.67-11.64,9.9-18.36,13.54-14.49,7.85-29.45,10.38-45.12,3.35-12.32-5.53-18.97-19.36-15.12-32.31,1.63-5.48,5.01-9.54,10.93-11.06,2.22-.57,4.22.79,6.34.32.04-.8-.52-.99-.96-1.29-8.79-5.81-18.58-5.9-28.43-4.52-12.55,1.76-23.12,7.84-32.54,16.1Z"/>
      <path class="cls-2" d="M.49,55.84c9.42-8.26,19.99-14.34,32.54-16.1,9.85-1.38,19.64-1.29,28.43,4.52.45.29,1,.49.96,1.29-2.12.47-4.12-.89-6.34-.32-5.92,1.52-9.3,5.58-10.93,11.06-3.85,12.95,2.8,26.78,15.12,32.31,15.67,7.03,30.62,4.51,45.12-3.35,6.72-3.64,13.09-7.87,18.36-13.54.29-.31.98-.26,1.49-.37.03,9.56-.01,19.12.13,28.68.04,2.73-.65,3.84-3.66,3.84-13.97-.02-27.32,3.03-39.74,9.42-6.87,3.54-13.33,7.86-19.41,13.42-8.75-7.33-18.23-13.32-28.78-17.41-10.66-4.13-21.87-5.5-33.68-5.81,0-2.98-.04-5.67,0-8.35.22-13.09-.48-26.2.39-39.28Z"/>
    </g>
  </g>
</svg>